<?xml version="1.0" encoding="UTF-8"?>
<svg version="1.1" xmlns="http://www.w3.org/2000/svg" width="3509" height="3509">
<path d="M0 0 C-0.58146434 5.92811319 -1.44217122 11.62594913 -2.76464844 17.4296875 C-3.0325116 18.63230114 -3.0325116 18.63230114 -3.30578613 19.85921001 C-3.90239038 22.5321907 -4.50587531 25.20356842 -5.109375 27.875 C-5.54356133 29.81345101 -5.97732593 31.75199653 -6.41070557 33.69062805 C-7.59997722 39.00471705 -8.79532147 44.31742413 -9.99169922 49.62991714 C-11.2817922 55.3634207 -12.56630013 61.09817571 -13.8515625 66.83276367 C-16.3598257 78.01970595 -18.87344762 89.20543744 -21.38921356 100.39069462 C-23.40476869 109.35210569 -25.41877942 118.31386237 -27.43164062 127.27587891 C-33.41209596 153.90239622 -39.3971732 180.5278699 -45.38671875 207.15234375 C-52.70826634 239.69782428 -60.02252881 272.2449391 -67.33386505 304.79271501 C-68.48137029 309.90102202 -69.62896905 315.00930801 -70.77661133 320.11758423 C-77.444737 349.79830536 -84.10973755 379.47971813 -90.76171875 409.1640625 C-91.29734476 411.55416435 -91.832974 413.94426547 -92.36860657 416.33436584 C-92.62987304 417.50019416 -92.89113951 418.66602247 -93.16032314 419.86717892 C-94.44017711 425.57812787 -95.72006587 431.28906902 -97 437 C-97.24601078 438.09770596 -97.49202156 439.19541191 -97.74548721 440.32638168 C-106.09209232 477.5672815 -114.4994601 514.79392284 -123 552 C-126.90500942 552.2464765 -127.68077135 552.26094985 -130.8671875 549.65625 C-131.8828267 548.6167446 -132.88511657 547.56406074 -133.875 546.5 C-134.36613281 545.9946875 -134.85726562 545.489375 -135.36328125 544.96875 C-138.06869501 542.15793051 -140.64909961 539.25660453 -143.18994141 536.296875 C-146.97999085 531.9581799 -150.9976053 527.89185019 -155.09375 523.84375 C-155.84410522 523.0971814 -156.59446045 522.35061279 -157.36755371 521.5814209 C-159.7425992 519.21847975 -162.12086817 516.8588263 -164.5 514.5 C-167.63839217 511.38839354 -170.77332745 508.27336245 -173.90625 505.15625 C-174.6137439 504.45705444 -175.32123779 503.75785889 -176.0501709 503.03747559 C-179.95472963 499.15195103 -183.64183356 495.15673863 -187.23864746 490.98620605 C-190.30250625 487.53121636 -193.59107058 484.30668269 -196.875 481.0625 C-197.60315918 480.33812744 -198.33131836 479.61375488 -199.08154297 478.86743164 C-201.38525646 476.57581697 -203.69219474 474.28749348 -206 472 C-209.04464779 468.98214919 -212.08582967 465.96086584 -215.125 462.9375 C-216.15343018 461.92151733 -216.15343018 461.92151733 -217.20263672 460.88500977 C-221.11383354 456.99345997 -224.82186925 452.99006374 -228.4256897 448.81253052 C-232.00607655 444.69036958 -235.86110805 440.82930036 -239.6875 436.9375 C-240.94916992 435.61975586 -240.94916992 435.61975586 -242.23632812 434.27539062 C-243.45545898 433.03885742 -243.45545898 433.03885742 -244.69921875 431.77734375 C-245.42971436 431.02702881 -246.16020996 430.27671387 -246.9128418 429.50366211 C-248.85416568 427.76975548 -248.85416568 427.76975548 -251.08154297 428.1315918 C-254.22079422 429.55260436 -256.780197 431.71924094 -259.4375 433.875 C-260.05367187 434.36677734 -260.66984375 434.85855469 -261.3046875 435.36523438 C-265.98006429 439.11796524 -270.55687939 442.98210081 -275.11206055 446.87915039 C-278.91788198 450.12254644 -282.80328625 453.24258522 -286.75 456.3125 C-292.76680793 460.99411267 -298.66477012 465.80706209 -304.53979492 470.66503906 C-311.33221632 476.2813929 -318.16972557 481.84076347 -325.01611328 487.39111328 C-328.34606447 490.09162747 -331.6728647 492.79601795 -335 495.5 C-336.3333184 496.58335171 -337.66665173 497.66668505 -339 498.75 C-339.66 499.28625 -340.32 499.8225 -341 500.375 C-343 502 -345 503.625 -347 505.25 C-347.66016113 505.78641113 -348.32032227 506.32282227 -349.00048828 506.87548828 C-350.33207451 507.95734112 -351.66378 509.03904718 -352.99560547 510.12060547 C-356.35666941 512.85039108 -359.71553619 515.58280217 -363.0703125 518.3203125 C-369.39886347 523.48017636 -375.7460689 528.60650853 -382.1875 533.625 C-387.36372575 537.65982038 -392.40258191 541.83021471 -397.39404297 546.09082031 C-401.27983432 549.40457959 -405.22983142 552.61960376 -409.23046875 555.79296875 C-412.71368458 558.56873313 -416.16985828 561.37691565 -419.625 564.1875 C-420.64944214 565.02063721 -420.64944214 565.02063721 -421.69458008 565.87060547 C-423.09757779 567.01177787 -424.50049041 568.1530549 -425.90332031 569.29443359 C-429.93188844 572.57151521 -433.96283262 575.84567444 -437.99414062 579.11938477 C-441.35567235 581.84960243 -444.7150438 584.58240038 -448.0703125 587.3203125 C-454.39886347 592.48017636 -460.7460689 597.60650853 -467.1875 602.625 C-472.36372575 606.65982038 -477.40258191 610.83021471 -482.39404297 615.09082031 C-486.27983432 618.40457959 -490.22983142 621.61960376 -494.23046875 624.79296875 C-497.71368581 627.56873411 -501.16978197 630.37700787 -504.625 633.1875 C-505.30651123 633.74147461 -505.98802246 634.29544922 -506.69018555 634.86621094 C-510.16045405 637.68780462 -513.62841002 640.51219949 -517.09375 643.33984375 C-523.41469373 648.49292805 -529.7540982 653.61276413 -536.1875 658.625 C-541.36372575 662.65982038 -546.40258191 666.83021471 -551.39404297 671.09082031 C-555.27983432 674.40457959 -559.22983142 677.61960376 -563.23046875 680.79296875 C-566.71368458 683.56873313 -570.16985828 686.37691565 -573.625 689.1875 C-574.64944214 690.02063721 -574.64944214 690.02063721 -575.69458008 690.87060547 C-577.09757779 692.01177787 -578.50049041 693.1530549 -579.90332031 694.29443359 C-583.93188844 697.57151521 -587.96283262 700.84567444 -591.99414062 704.11938477 C-595.35567235 706.84960243 -598.7150438 709.58240038 -602.0703125 712.3203125 C-608.39886347 717.48017636 -614.7460689 722.60650853 -621.1875 727.625 C-626.36372575 731.65982038 -631.40258191 735.83021471 -636.39404297 740.09082031 C-640.27983432 743.40457959 -644.22983142 746.61960376 -648.23046875 749.79296875 C-651.71368458 752.56873313 -655.16985828 755.37691565 -658.625 758.1875 C-659.64944214 759.02063721 -659.64944214 759.02063721 -660.69458008 759.87060547 C-662.09757779 761.01177787 -663.50049041 762.1530549 -664.90332031 763.29443359 C-668.93188844 766.57151521 -672.96283262 769.84567444 -676.99414062 773.11938477 C-680.35567235 775.84960243 -683.7150438 778.58240038 -687.0703125 781.3203125 C-693.39886347 786.48017636 -699.7460689 791.60650853 -706.1875 796.625 C-711.36372575 800.65982038 -716.40258191 804.83021471 -721.39404297 809.09082031 C-725.27983432 812.40457959 -729.22983142 815.61960376 -733.23046875 818.79296875 C-736.71368458 821.56873313 -740.16985828 824.37691565 -743.625 827.1875 C-744.64944214 828.02063721 -744.64944214 828.02063721 -745.69458008 828.87060547 C-747.09757779 830.01177787 -748.50049041 831.1530549 -749.90332031 832.29443359 C-753.93188844 835.57151521 -757.96283262 838.84567444 -761.99414062 842.11938477 C-765.35567235 844.84960243 -768.7150438 847.58240038 -772.0703125 850.3203125 C-778.39886347 855.48017636 -784.7460689 860.60650853 -791.1875 865.625 C-796.36372575 869.65982038 -801.40258191 873.83021471 -806.39404297 878.09082031 C-810.27983432 881.40457959 -814.22983142 884.61960376 -818.23046875 887.79296875 C-821.71368458 890.56873313 -825.16985828 893.37691565 -828.625 896.1875 C-829.64944214 897.02063721 -829.64944214 897.02063721 -830.69458008 897.87060547 C-832.09757779 899.01177787 -833.50049041 900.1530549 -834.90332031 901.29443359 C-838.93188844 904.57151521 -842.96283262 907.84567444 -846.99414062 911.11938477 C-850.35567235 913.84960243 -853.7150438 916.58240038 -857.0703125 919.3203125 C-863.39886347 924.48017636 -869.7460689 929.60650853 -876.1875 934.625 C-881.36372575 938.65982038 -886.40258191 942.83021471 -891.39404297 947.09082031 C-895.27983432 950.40457959 -899.22983142 953.61960376 -903.23046875 956.79296875 C-906.71368581 959.56873411 -910.16978197 962.37700787 -913.625 965.1875 C-914.30651123 965.74147461 -914.98802246 966.29544922 -915.69018555 966.86621094 C-919.16045405 969.68780462 -922.62841002 972.51219949 -926.09375 975.33984375 C-932.41469373 980.49292805 -938.7540982 985.61276413 -945.1875 990.625 C-950.36372575 994.65982038 -955.40258191 998.83021471 -960.39404297 1003.09082031 C-964.27983432 1006.40457959 -968.22983142 1009.61960376 -972.23046875 1012.79296875 C-975.71368458 1015.56873313 -979.16985828 1018.37691565 -982.625 1021.1875 C-983.64944214 1022.02063721 -983.64944214 1022.02063721 -984.69458008 1022.87060547 C-986.09757779 1024.01177787 -987.50049041 1025.1530549 -988.90332031 1026.29443359 C-992.93188844 1029.57151521 -996.96283262 1032.84567444 -1000.99414062 1036.11938477 C-1004.35567235 1038.84960243 -1007.7150438 1041.58240038 -1011.0703125 1044.3203125 C-1017.39886347 1049.48017636 -1023.7460689 1054.60650853 -1030.1875 1059.625 C-1035.36372575 1063.65982038 -1040.40258191 1067.83021471 -1045.39404297 1072.09082031 C-1049.27983432 1075.40457959 -1053.22983142 1078.61960376 -1057.23046875 1081.79296875 C-1060.71368458 1084.56873313 -1064.16985828 1087.37691565 -1067.625 1090.1875 C-1068.30796143 1090.7429248 -1068.99092285 1091.29834961 -1069.69458008 1091.87060547 C-1071.09757779 1093.01177787 -1072.50049041 1094.1530549 -1073.90332031 1095.29443359 C-1077.93188844 1098.57151521 -1081.96283262 1101.84567444 -1085.99414062 1105.11938477 C-1089.35567235 1107.84960243 -1092.7150438 1110.58240038 -1096.0703125 1113.3203125 C-1102.39886347 1118.48017636 -1108.7460689 1123.60650853 -1115.1875 1128.625 C-1120.36211301 1132.65856327 -1125.39879416 1136.82829669 -1130.38964844 1141.08642578 C-1134.31192203 1144.43006218 -1138.27864581 1147.70047416 -1142.3359375 1150.87890625 C-1144.39812519 1152.52079469 -1146.40933243 1154.19262228 -1148.4140625 1155.90234375 C-1149.63006003 1156.91424075 -1150.84620518 1157.92596037 -1152.0625 1158.9375 C-1152.61607178 1159.42283203 -1153.16964355 1159.90816406 -1153.73999023 1160.40820312 C-1157.41638449 1163.42197582 -1160.66206792 1165.00738385 -1165.4519043 1165.27368164 C-1170.99267371 1164.67856786 -1175.87804003 1162.0818921 -1180.875 1159.75 C-1182.17587759 1159.16209285 -1183.47775274 1158.57638899 -1184.78051758 1157.99267578 C-1187.6424593 1156.70747234 -1190.49913531 1155.4113746 -1193.35302734 1154.10839844 C-1198.22483449 1151.89013105 -1203.11980557 1149.72608043 -1208.01953125 1147.5703125 C-1208.88243774 1147.19056274 -1209.74534424 1146.81081299 -1210.63439941 1146.41955566 C-1212.41315604 1145.63685033 -1214.19194469 1144.85421777 -1215.97076416 1144.07165527 C-1220.58092819 1142.04099148 -1225.18686776 1140.00079657 -1229.79296875 1137.9609375 C-1239.80187715 1133.52948255 -1249.81351837 1129.10423754 -1259.82614136 1124.68118286 C-1264.29824412 1122.70562176 -1268.77023189 1120.72980043 -1273.2421875 1118.75390625 C-1274.12871506 1118.36220749 -1275.01524261 1117.97050873 -1275.92863464 1117.56694031 C-1281.32412373 1115.18286277 -1286.71915126 1112.79774402 -1292.11383057 1110.41183472 C-1310.56567255 1102.25117127 -1329.0231275 1094.10385257 -1347.5 1086 C-1361.46716785 1079.87407858 -1375.42554569 1073.72865469 -1389.375 1067.5625 C-1390.2634259 1067.16984955 -1391.15185181 1066.7771991 -1392.06719971 1066.37265015 C-1402.95023647 1061.5625615 -1413.83068974 1056.74667061 -1424.70918274 1051.92631531 C-1431.84685824 1048.76478634 -1438.99077512 1045.61756007 -1446.13652039 1042.47431946 C-1451.43870976 1040.13887725 -1456.72875811 1037.77804837 -1462.01123047 1035.39836121 C-1465.42262551 1033.86513507 -1468.84060438 1032.34700468 -1472.2600708 1030.83187866 C-1473.85860452 1030.11942965 -1475.45420981 1029.40036755 -1477.04656982 1028.67422485 C-1479.23592598 1027.67670842 -1481.43453196 1026.70316415 -1483.63671875 1025.734375 C-1484.26810257 1025.43961777 -1484.89948639 1025.14486053 -1485.55000305 1024.84117126 C-1490.19561102 1022.83960262 -1494.20756006 1022.4652282 -1499 1024 C-1502.26407502 1025.64161612 -1505.21858398 1027.64040013 -1508.21875 1029.71875 C-1509.08624878 1030.3012854 -1509.95374756 1030.8838208 -1510.84753418 1031.48400879 C-1512.66822906 1032.7067412 -1514.48512636 1033.9351458 -1516.29833984 1035.16894531 C-1519.68571069 1037.46474156 -1523.10434079 1039.71045374 -1526.52709961 1041.95300293 C-1529.07610485 1043.6231394 -1531.62067346 1045.29984046 -1534.1640625 1046.97851562 C-1535.03192383 1047.55126221 -1535.89978516 1048.12400879 -1536.79394531 1048.71411133 C-1538.13344238 1049.59812622 -1538.13344238 1049.59812622 -1539.5 1050.5 C-1541.41401632 1051.7624398 -1543.32807997 1053.02480786 -1545.2421875 1054.28710938 C-1549.19939989 1056.89686092 -1553.15641328 1059.50691378 -1557.11328125 1062.1171875 C-1565.49860126 1067.64848866 -1573.88642339 1073.17599275 -1582.27416992 1078.70361328 C-1586.84955979 1081.7189038 -1591.42477041 1084.73446628 -1596 1087.75 C-1597.83333248 1088.95833462 -1599.66666582 1090.16666796 -1601.5 1091.375 C-1602.86125 1092.2721875 -1602.86125 1092.2721875 -1604.25 1093.1875 C-1608.375 1095.90625 -1608.375 1095.90625 -1612.5 1098.625 C-1613.40748993 1099.22311996 -1614.31497986 1099.82123993 -1615.24996948 1100.43748474 C-1617.08339859 1101.64587796 -1618.91683365 1102.85426216 -1620.75027466 1104.06263733 C-1625.33219143 1107.0824804 -1629.91400489 1110.10247998 -1634.49560547 1113.12280273 C-1642.76225958 1118.57219941 -1651.02964503 1124.02046873 -1659.30090332 1129.46287537 C-1663.90944409 1132.49531124 -1668.51733167 1135.52873869 -1673.125 1138.5625 C-1674.02641724 1139.15592194 -1674.92783447 1139.74934387 -1675.85656738 1140.36074829 C-1686.10420296 1147.10891947 -1696.33597458 1153.87994125 -1706.5390625 1160.6953125 C-1707.95791245 1161.64285652 -1707.95791245 1161.64285652 -1709.40542603 1162.60954285 C-1713.90588797 1165.61608185 -1718.40413339 1168.62586093 -1722.89892578 1171.64086914 C-1730.94319589 1177.02787225 -1739.02746451 1182.31631571 -1747.25952148 1187.41207886 C-1753.52968782 1191.30262152 -1759.66636878 1195.37924317 -1765.79000854 1199.49542236 C-1769.3415679 1201.88200389 -1772.89932591 1204.25931262 -1776.45703125 1206.63671875 C-1777.59864464 1207.39976318 -1777.59864464 1207.39976318 -1778.76332092 1208.17822266 C-1788.29110842 1214.53966494 -1797.86627837 1220.82919489 -1807.4375 1227.125 C-1818.84034062 1234.62577635 -1830.23284187 1242.14086531 -1841.58203125 1249.72265625 C-1842.52521713 1250.35262512 -1843.46840302 1250.98259399 -1844.44017029 1251.63165283 C-1848.9280912 1254.6303467 -1853.41371789 1257.63240284 -1857.89624023 1260.63916016 C-1865.94144958 1266.02666517 -1874.02656278 1271.31575753 -1882.25952148 1276.41207886 C-1888.52951961 1280.30251714 -1894.66600034 1284.37905604 -1900.78945923 1288.49514771 C-1904.3436638 1290.88333551 -1907.90438579 1293.26177426 -1911.46484375 1295.640625 C-1912.22633224 1296.14952774 -1912.98782074 1296.65843048 -1913.77238464 1297.18275452 C-1923.25882402 1303.51677523 -1932.78578012 1309.78930216 -1942.3125 1316.0625 C-1943.69819183 1316.97521667 -1943.69819183 1316.97521667 -1945.11187744 1317.90637207 C-1953.59992388 1323.49717758 -1962.08975915 1329.08526339 -1970.58056641 1334.671875 C-1976.09610449 1338.30097979 -1981.61079529 1341.9313696 -1987.125 1345.5625 C-1988.02542023 1346.15528748 -1988.92584045 1346.74807495 -1989.85354614 1347.35882568 C-2000.10219194 1354.10763412 -2010.33498146 1360.87927787 -2020.5390625 1367.6953125 C-2021.95791245 1368.64285652 -2021.95791245 1368.64285652 -2023.40542603 1369.60954285 C-2027.90588797 1372.61608185 -2032.40413339 1375.62586093 -2036.89892578 1378.64086914 C-2044.94319589 1384.02787225 -2053.02746451 1389.31631571 -2061.25952148 1394.41207886 C-2067.53288586 1398.30460586 -2073.67259048 1402.38345092 -2079.79934692 1406.5017395 C-2083.30345966 1408.85636248 -2086.81392586 1411.20147937 -2090.32421875 1413.546875 C-2091.07827499 1414.05082291 -2091.83233124 1414.55477081 -2092.60923767 1415.07398987 C-2101.91973244 1421.29051376 -2111.26418914 1427.45561326 -2120.61120605 1433.61703491 C-2122.56614478 1434.90571205 -2124.52081956 1436.19478969 -2126.47521973 1437.48428345 C-2129.2340807 1439.30439078 -2131.99383816 1441.1231301 -2134.75390625 1442.94140625 C-2135.5703511 1443.48013367 -2136.38679596 1444.01886108 -2137.22798157 1444.57391357 C-2138.75518799 1445.57894633 -2140.28542103 1446.57940011 -2141.81912231 1447.57449341 C-2143.29488477 1448.53910923 -2144.75867303 1449.52225465 -2146.21090698 1450.52194214 C-2146.90950836 1450.99028473 -2147.60810974 1451.45862732 -2148.32788086 1451.94116211 C-2148.94054306 1452.36215683 -2149.55320526 1452.78315155 -2150.18443298 1453.21690369 C-2152.49757539 1454.21461585 -2153.67192607 1453.82666679 -2156 1453 C-2156.828125 1450.90234375 -2156.828125 1450.90234375 -2157 1448 C-2155.32937369 1445.61295548 -2153.72880891 1443.66479938 -2151.75 1441.5625 C-2150.62507725 1440.31216468 -2149.50273879 1439.05950012 -2148.3828125 1437.8046875 C-2147.81208008 1437.17014648 -2147.24134766 1436.53560547 -2146.65332031 1435.88183594 C-2144.1883854 1433.07620713 -2141.90337052 1430.14512304 -2139.625 1427.1875 C-2135.5437022 1421.92727617 -2131.36753215 1416.75607235 -2127.125 1411.625 C-2126.53565674 1410.9119873 -2125.94631348 1410.19897461 -2125.33911133 1409.46435547 C-2124.45388794 1408.39338623 -2124.45388794 1408.39338623 -2123.55078125 1407.30078125 C-2116.04937696 1398.2248816 -2108.61333012 1389.09987815 -2101.375 1379.8125 C-2097.34007746 1374.63635027 -2093.16978934 1369.59742283 -2088.90917969 1364.60595703 C-2085.59542041 1360.72016568 -2082.38039624 1356.77016858 -2079.20703125 1352.76953125 C-2076.43126589 1349.28631419 -2073.62299213 1345.83021803 -2070.8125 1342.375 C-2070.25852539 1341.69348877 -2069.70455078 1341.01197754 -2069.13378906 1340.30981445 C-2066.31219538 1336.83954595 -2063.48780051 1333.37158998 -2060.66015625 1329.90625 C-2055.50707195 1323.58530627 -2050.38723587 1317.2459018 -2045.375 1310.8125 C-2041.34017962 1305.63627425 -2037.16978529 1300.59741809 -2032.90917969 1295.60595703 C-2029.59542041 1291.72016568 -2026.38039624 1287.77016858 -2023.20703125 1283.76953125 C-2020.43126589 1280.28631419 -2017.62299213 1276.83021803 -2014.8125 1273.375 C-2014.25852539 1272.69348877 -2013.70455078 1272.01197754 -2013.13378906 1271.30981445 C-2010.31219538 1267.83954595 -2007.48780051 1264.37158998 -2004.66015625 1260.90625 C-1999.50707195 1254.58530627 -1994.38723587 1248.2459018 -1989.375 1241.8125 C-1985.34017962 1236.63627425 -1981.16978529 1231.59741809 -1976.90917969 1226.60595703 C-1973.59542041 1222.72016568 -1970.38039624 1218.77016858 -1967.20703125 1214.76953125 C-1964.43126589 1211.28631419 -1961.62299213 1207.83021803 -1958.8125 1204.375 C-1958.25852539 1203.69348877 -1957.70455078 1203.01197754 -1957.13378906 1202.30981445 C-1954.31219538 1198.83954595 -1951.48780051 1195.37158998 -1948.66015625 1191.90625 C-1943.50707195 1185.58530627 -1938.38723587 1179.2459018 -1933.375 1172.8125 C-1929.34017962 1167.63627425 -1925.16978529 1162.59741809 -1920.90917969 1157.60595703 C-1917.59542041 1153.72016568 -1914.38039624 1149.77016858 -1911.20703125 1145.76953125 C-1908.43126589 1142.28631419 -1905.62299213 1138.83021803 -1902.8125 1135.375 C-1902.25852539 1134.69348877 -1901.70455078 1134.01197754 -1901.13378906 1133.30981445 C-1898.31219538 1129.83954595 -1895.48780051 1126.37158998 -1892.66015625 1122.90625 C-1887.50707195 1116.58530627 -1882.38723587 1110.2459018 -1877.375 1103.8125 C-1873.34017962 1098.63627425 -1869.16978529 1093.59741809 -1864.90917969 1088.60595703 C-1861.59542041 1084.72016568 -1858.38039624 1080.77016858 -1855.20703125 1076.76953125 C-1852.43126589 1073.28631419 -1849.62299213 1069.83021803 -1846.8125 1066.375 C-1846.25852539 1065.69348877 -1845.70455078 1065.01197754 -1845.13378906 1064.30981445 C-1842.31219538 1060.83954595 -1839.48780051 1057.37158998 -1836.66015625 1053.90625 C-1831.50707195 1047.58530627 -1826.38723587 1041.2459018 -1821.375 1034.8125 C-1817.34017962 1029.63627425 -1813.16978529 1024.59741809 -1808.90917969 1019.60595703 C-1805.59542041 1015.72016568 -1802.38039624 1011.77016858 -1799.20703125 1007.76953125 C-1796.43126589 1004.28631419 -1793.62299213 1000.83021803 -1790.8125 997.375 C-1790.25852539 996.69348877 -1789.70455078 996.01197754 -1789.13378906 995.30981445 C-1786.31219538 991.83954595 -1783.48780051 988.37158998 -1780.66015625 984.90625 C-1775.50707195 978.58530627 -1770.38723587 972.2459018 -1765.375 965.8125 C-1761.34017962 960.63627425 -1757.16978529 955.59741809 -1752.90917969 950.60595703 C-1749.59542041 946.72016568 -1746.38039624 942.77016858 -1743.20703125 938.76953125 C-1740.43126589 935.28631419 -1737.62299213 931.83021803 -1734.8125 928.375 C-1734.25852539 927.69348877 -1733.70455078 927.01197754 -1733.13378906 926.30981445 C-1730.31219538 922.83954595 -1727.48780051 919.37158998 -1724.66015625 915.90625 C-1719.50707195 909.58530627 -1714.38723587 903.2459018 -1709.375 896.8125 C-1705.34017962 891.63627425 -1701.16978529 886.59741809 -1696.90917969 881.60595703 C-1693.59542041 877.72016568 -1690.38039624 873.77016858 -1687.20703125 869.76953125 C-1684.43126589 866.28631419 -1681.62299213 862.83021803 -1678.8125 859.375 C-1678.25852539 858.69348877 -1677.70455078 858.01197754 -1677.13378906 857.30981445 C-1674.31219538 853.83954595 -1671.48780051 850.37158998 -1668.66015625 846.90625 C-1663.50707195 840.58530627 -1658.38723587 834.2459018 -1653.375 827.8125 C-1649.34017962 822.63627425 -1645.16978529 817.59741809 -1640.90917969 812.60595703 C-1637.59542041 808.72016568 -1634.38039624 804.77016858 -1631.20703125 800.76953125 C-1628.43126589 797.28631419 -1625.62299213 793.83021803 -1622.8125 790.375 C-1622.25852539 789.69348877 -1621.70455078 789.01197754 -1621.13378906 788.30981445 C-1618.31219538 784.83954595 -1615.48780051 781.37158998 -1612.66015625 777.90625 C-1607.50707195 771.58530627 -1602.38723587 765.2459018 -1597.375 758.8125 C-1593.34496674 753.6424156 -1589.17943635 748.60963587 -1584.92456055 743.62353516 C-1579.12012355 736.81559085 -1573.52924039 729.87183184 -1568.32421875 722.59375 C-1565.82320375 719.58367885 -1564.01280695 719.00163991 -1560.15625 718.5078125 C-1553.98906748 718.66893262 -1548.90086111 721.31801573 -1543.42199707 723.95175171 C-1540.73147984 725.24416546 -1538.02296801 726.49679941 -1535.31524658 727.75267029 C-1533.84852604 728.43324484 -1532.38268245 729.11571211 -1530.91766357 729.79994202 C-1522.94151437 733.51838382 -1514.88420731 737.04635458 -1506.81890869 740.56619263 C-1502.45283492 742.47194768 -1498.08987355 744.38480517 -1493.7265625 746.296875 C-1492.8445517 746.68319595 -1491.96254089 747.06951691 -1491.05380249 747.46754456 C-1481.23490264 751.76981495 -1471.42933626 756.10216665 -1461.625 760.4375 C-1460.73566772 760.83069427 -1459.84633545 761.22388855 -1458.93005371 761.6289978 C-1454.42231683 763.62200514 -1449.91472635 765.61534323 -1445.40722656 767.60888672 C-1437.33421864 771.17914287 -1429.25979878 774.74620356 -1421.18548584 778.31350708 C-1416.70693279 780.29220732 -1412.22847102 782.27111411 -1407.75 784.25 C-1405.95833377 785.04166766 -1404.1666671 785.83333432 -1402.375 786.625 C-1398.79166667 788.20833333 -1395.20833333 789.79166667 -1391.625 791.375 C-1390.73813507 791.76686996 -1389.85127014 792.15873993 -1388.93753052 792.56248474 C-1387.14576038 793.35419831 -1385.35399198 794.14591584 -1383.56222534 794.93763733 C-1379.08465616 796.91611882 -1374.60705667 798.89453164 -1370.12939453 800.87280273 C-1362.04783067 804.44338993 -1353.96648793 808.0144732 -1345.88627625 811.58811951 C-1341.38266793 813.57991994 -1336.87888503 815.57132536 -1332.375 817.5625 C-1331.4872287 817.95498932 -1330.5994574 818.34747864 -1329.68478394 818.75186157 C-1315.62986192 824.9645387 -1301.56170671 831.1466473 -1287.48779297 837.31616211 C-1276.33838024 842.20452193 -1265.20319652 847.12330971 -1254.08355713 852.07901001 C-1249.70172748 854.03027744 -1245.31679429 855.9745643 -1240.93200684 857.91917419 C-1236.87141357 859.7211108 -1232.81404076 861.52996598 -1228.76025391 863.34716797 C-1224.27784726 865.35615565 -1219.78983428 867.35213368 -1215.29815674 869.34030151 C-1213.57453805 870.10596249 -1211.85292706 870.87616114 -1210.13348389 871.65115356 C-1207.74389412 872.72744086 -1205.34762991 873.78729692 -1202.94921875 874.84375 C-1202.24666458 875.16476181 -1201.54411041 875.48577362 -1200.82026672 875.81651306 C-1196.40492585 877.73617565 -1192.90311971 878.4689809 -1188 878 C-1185.31702758 876.37420125 -1185.31702758 876.37420125 -1183.0625 874 C-1182.21042969 873.17757812 -1181.35835937 872.35515625 -1180.48046875 871.5078125 C-1179.25263672 870.26644531 -1179.25263672 870.26644531 -1178 869 C-1177.29488281 868.29617188 -1176.58976562 867.59234375 -1175.86328125 866.8671875 C-1174.54620328 865.54752195 -1173.23362822 864.2233457 -1171.92578125 862.89453125 C-1170.03241908 861.03189301 -1168.07785932 859.29165445 -1166.0625 857.5625 C-1163.07198284 854.99334729 -1160.26883316 852.30682744 -1157.5 849.5 C-1154.13885518 846.0928121 -1150.66298797 842.92541826 -1147.03125 839.8125 C-1144.76361428 837.7890712 -1142.6342305 835.66346653 -1140.5 833.5 C-1137.13885518 830.0928121 -1133.66298797 826.92541826 -1130.03125 823.8125 C-1127.76361428 821.7890712 -1125.6342305 819.66346653 -1123.5 817.5 C-1120.13885518 814.0928121 -1116.66298797 810.92541826 -1113.03125 807.8125 C-1110.76361428 805.7890712 -1108.6342305 803.66346653 -1106.5 801.5 C-1103.77170593 798.73439592 -1101.01483166 796.08712969 -1098.0625 793.5625 C-1094.8896408 790.84380752 -1091.93661618 787.97248325 -1089 785 C-1085.45767801 781.41441301 -1081.82444339 778.05108338 -1077.99609375 774.77734375 C-1074.93333273 772.05022777 -1072.09776507 769.10595363 -1069.21875 766.1875 C-1066.59228878 763.59803119 -1063.83023542 761.21163036 -1061.03125 758.8125 C-1058.76361428 756.7890712 -1056.6342305 754.66346653 -1054.5 752.5 C-1051.13885518 749.0928121 -1047.66298797 745.92541826 -1044.03125 742.8125 C-1041.76361428 740.7890712 -1039.6342305 738.66346653 -1037.5 736.5 C-1034.13885518 733.0928121 -1030.66298797 729.92541826 -1027.03125 726.8125 C-1024.76361428 724.7890712 -1022.6342305 722.66346653 -1020.5 720.5 C-1017.77170593 717.73439592 -1015.01483166 715.08712969 -1012.0625 712.5625 C-1008.8896408 709.84380752 -1005.93661618 706.97248325 -1003 704 C-999.45767801 700.41441301 -995.82444339 697.05108338 -991.99609375 693.77734375 C-988.93333273 691.05022777 -986.09776507 688.10595363 -983.21875 685.1875 C-980.59228878 682.59803119 -977.83023542 680.21163036 -975.03125 677.8125 C-972.76361428 675.7890712 -970.6342305 673.66346653 -968.5 671.5 C-965.13885518 668.0928121 -961.66298797 664.92541826 -958.03125 661.8125 C-955.76361428 659.7890712 -953.6342305 657.66346653 -951.5 655.5 C-948.13885518 652.0928121 -944.66298797 648.92541826 -941.03125 645.8125 C-938.76361428 643.7890712 -936.6342305 641.66346653 -934.5 639.5 C-931.77170593 636.73439592 -929.01483166 634.08712969 -926.0625 631.5625 C-922.8896408 628.84380752 -919.93661618 625.97248325 -917 623 C-913.45767801 619.41441301 -909.82444339 616.05108338 -905.99609375 612.77734375 C-902.93333273 610.05022777 -900.09776507 607.10595363 -897.21875 604.1875 C-894.59228878 601.59803119 -891.83023542 599.21163036 -889.03125 596.8125 C-886.76361428 594.7890712 -884.6342305 592.66346653 -882.5 590.5 C-879.13885518 587.0928121 -875.66298797 583.92541826 -872.03125 580.8125 C-869.76361428 578.7890712 -867.6342305 576.66346653 -865.5 574.5 C-862.13885518 571.0928121 -858.66298797 567.92541826 -855.03125 564.8125 C-852.76361428 562.7890712 -850.6342305 560.66346653 -848.5 558.5 C-845.13885518 555.0928121 -841.66298797 551.92541826 -838.03125 548.8125 C-835.76361428 546.7890712 -833.6342305 544.66346653 -831.5 542.5 C-828.77170593 539.73439592 -826.01483166 537.08712969 -823.0625 534.5625 C-819.8896408 531.84380752 -816.93661618 528.97248325 -814 526 C-810.45767801 522.41441301 -806.82444339 519.05108338 -802.99609375 515.77734375 C-799.93333273 513.05022777 -797.09776507 510.10595363 -794.21875 507.1875 C-791.59228878 504.59803119 -788.83023542 502.21163036 -786.03125 499.8125 C-783.76361428 497.7890712 -781.6342305 495.66346653 -779.5 493.5 C-776.13885518 490.0928121 -772.66298797 486.92541826 -769.03125 483.8125 C-766.76361428 481.7890712 -764.6342305 479.66346653 -762.5 477.5 C-759.13885518 474.0928121 -755.66298797 470.92541826 -752.03125 467.8125 C-749.76361428 465.7890712 -747.6342305 463.66346653 -745.5 461.5 C-742.77170593 458.73439592 -740.01483166 456.08712969 -737.0625 453.5625 C-733.8896408 450.84380752 -730.93661618 447.97248325 -728 445 C-724.45767801 441.41441301 -720.82444339 438.05108338 -716.99609375 434.77734375 C-713.93333273 432.05022777 -711.09776507 429.10595363 -708.21875 426.1875 C-705.59228878 423.59803119 -702.83023542 421.21163036 -700.03125 418.8125 C-697.76361428 416.7890712 -695.6342305 414.66346653 -693.5 412.5 C-690.13885518 409.0928121 -686.66298797 405.92541826 -683.03125 402.8125 C-680.76361428 400.7890712 -678.6342305 398.66346653 -676.5 396.5 C-673.13885518 393.0928121 -669.66298797 389.92541826 -666.03125 386.8125 C-663.76361428 384.7890712 -661.6342305 382.66346653 -659.5 380.5 C-656.77170593 377.73439592 -654.01483166 375.08712969 -651.0625 372.5625 C-647.8896408 369.84380752 -644.93661618 366.97248325 -642 364 C-638.45767801 360.41441301 -634.82444339 357.05108338 -630.99609375 353.77734375 C-627.93333273 351.05022777 -625.09776507 348.10595363 -622.21875 345.1875 C-619.59228878 342.59803119 -616.83023542 340.21163036 -614.03125 337.8125 C-611.76361428 335.7890712 -609.6342305 333.66346653 -607.5 331.5 C-604.13885518 328.0928121 -600.66298797 324.92541826 -597.03125 321.8125 C-594.76361428 319.7890712 -592.6342305 317.66346653 -590.5 315.5 C-587.13885518 312.0928121 -583.66298797 308.92541826 -580.03125 305.8125 C-577.76361428 303.7890712 -575.6342305 301.66346653 -573.5 299.5 C-570.77170593 296.73439592 -568.01483166 294.08712969 -565.0625 291.5625 C-561.8896408 288.84380752 -558.93661618 285.97248325 -556 283 C-552.45767801 279.41441301 -548.82444339 276.05108338 -544.99609375 272.77734375 C-541.93333273 270.05022777 -539.09776507 267.10595363 -536.21875 264.1875 C-533.59228878 261.59803119 -530.83023542 259.21163036 -528.03125 256.8125 C-525.76361428 254.7890712 -523.6342305 252.66346653 -521.5 250.5 C-518.13885518 247.0928121 -514.66298797 243.92541826 -511.03125 240.8125 C-507.96025683 238.07222917 -505.11213124 235.12053098 -502.22265625 232.19140625 C-500.1879405 230.1852981 -498.10414563 228.29886484 -495.9375 226.4375 C-493.07347579 223.94880154 -490.21773028 221.45733194 -487.4375 218.875 C-486.75558594 218.25367188 -486.07367187 217.63234375 -485.37109375 216.9921875 C-483.74123642 215.07409297 -483.74123642 215.07409297 -484.1971283 212.62203979 C-485.12733428 209.58414831 -486.22933142 208.28039194 -488.47485352 206.05517578 C-489.20974503 205.3173587 -489.94463654 204.57954163 -490.70179749 203.81936646 C-491.50274338 203.03592865 -492.30368927 202.25249084 -493.12890625 201.4453125 C-493.95196762 200.62553925 -494.77502899 199.80576599 -495.62303162 198.96115112 C-498.26031288 196.3396265 -500.91141359 193.73255501 -503.5625 191.125 C-505.32182436 189.37716814 -507.0802979 187.62847941 -508.83789062 185.87890625 C-510.53829803 184.19193743 -512.23944685 182.50571553 -513.94140625 180.8203125 C-515.12157066 179.65122849 -515.12157066 179.65122849 -516.32557678 178.45852661 C-519.82684951 175.01662275 -523.35252333 171.64906079 -527.07006836 168.44091797 C-531.22281522 164.85647415 -535.08363669 161.02607967 -538.9375 157.125 C-539.66187256 156.39684082 -540.38624512 155.66868164 -541.13256836 154.91845703 C-544.19542424 151.83943049 -547.25222311 148.75441677 -550.30957031 145.66992188 C-552.55844117 143.40284542 -554.81040238 141.13887034 -557.0625 138.875 C-557.73982178 138.18937988 -558.41714355 137.50375977 -559.11499023 136.79736328 C-563.00219456 132.89053386 -567.00124175 129.18754515 -571.17404175 125.58773804 C-575.47626614 121.84679528 -579.50061063 117.80977508 -583.5625 113.8125 C-584.48869141 112.92369141 -585.41488281 112.03488281 -586.36914062 111.11914062 C-587.23861328 110.26126953 -588.10808594 109.40339844 -589.00390625 108.51953125 C-589.79611572 107.74714111 -590.5883252 106.97475098 -591.40454102 106.17895508 C-592.19429321 105.10037231 -592.19429321 105.10037231 -593 104 C-592.59971619 101.86381531 -592.59971619 101.86381531 -592 100 C-563.99719518 94.99191443 -535.98154566 90.06879765 -507.94203973 85.27054858 C-503.0627579 84.43524373 -498.18376496 83.59825434 -493.30473328 82.76148987 C-484.89733565 81.31981627 -476.48977402 79.87910264 -468.08209229 78.43908691 C-455.80737716 76.33673382 -443.53294349 74.23274114 -431.25858212 72.12832379 C-425.48084669 71.13774266 -419.7031016 70.14721793 -413.925354 69.15670776 C-412.77034897 68.95869894 -411.61534393 68.76069012 -410.42533875 68.55668104 C-402.16443926 67.14050381 -393.9034906 65.72461371 -385.64251709 64.30886841 C-348.98784311 58.02705802 -312.33391719 51.74089646 -275.68060303 45.45115662 C-272.39366024 44.88711913 -269.10671718 44.32308328 -265.81977367 43.75905001 C-263.64112637 43.38519771 -261.46247965 43.01134205 -259.2838335 42.637483 C-244.26313333 40.05994838 -229.24213322 37.48416863 -214.22090721 34.90970027 C-204.85684412 33.30474964 -195.49286082 31.69933366 -186.12890625 30.09375 C-185.11945733 29.92067361 -184.11000841 29.74759722 -183.06997013 29.56927609 C-156.75847333 25.0577883 -130.45039713 20.52715268 -104.1474216 15.9662416 C-98.37715712 14.96576505 -92.60664246 13.96674361 -86.8359375 12.96881104 C-86.04875092 12.83267434 -85.26156434 12.69653765 -84.45052361 12.55627561 C-81.34134622 12.01860034 -78.23216191 11.48096516 -75.1229434 10.9435277 C-66.36469467 9.42958917 -57.60739976 7.91041634 -48.85181874 6.38112164 C-42.97449241 5.35501449 -37.09566719 4.33779186 -31.21618843 3.32408142 C-28.85649972 2.9156207 -26.49735271 2.50401597 -24.1388073 2.08900452 C-20.97093232 1.53189416 -17.80136266 0.98573424 -14.63110352 0.44238281 C-13.71603846 0.27861523 -12.8009734 0.11484764 -11.85817909 -0.0538826 C-7.63521935 -0.76597089 -4.18824755 -1.30222172 0 0 Z " fill="#FFFFFF" transform="translate(2833,949)"/>
<path d="M0 0 C0.87462891 0.02255859 1.74925781 0.04511719 2.65039062 0.06835938 C4.78851121 0.12677797 6.92573956 0.21644184 9.0625 0.3125 C9.10857277 87.66036229 9.15388531 175.0082275 9.18952942 292.64743042 C9.18994777 294.1033225 9.19036613 295.55921459 9.19078448 297.01510667 C9.19955222 327.57352241 9.2077024 358.13193828 9.21513903 388.69035437 C9.21887527 404.04047091 9.22273019 419.39058741 9.22669732 434.74070388 C9.22729507 437.05623558 9.22788943 439.37176728 9.22848364 441.68729897 C9.23766543 477.35039318 9.24939532 513.01348431 9.26849365 548.67657471 C9.2691097 549.82707697 9.2691097 549.82707697 9.26973819 551.0008217 C9.27637544 563.36744483 9.28322621 575.73406783 9.29010532 588.10069083 C9.30991192 623.71302008 9.32814409 659.32534698 9.33591938 694.9376812 C9.33607999 695.66976011 9.33624059 696.40183903 9.33640606 697.15610215 C9.33990306 713.22560869 9.34258776 729.29511526 9.34450295 745.36462206 C9.34528783 751.8300959 9.34618969 758.29556973 9.34713173 764.76104355 C9.34723201 765.46866889 9.34733229 766.17629423 9.34743561 766.90536276 C9.35072685 789.71881034 9.36354653 812.5322404 9.38134663 835.3456809 C9.39972548 858.95818886 9.40754769 882.57067143 9.40300413 906.18318816 C9.40071574 919.80593692 9.40686479 933.42862222 9.42489263 947.05135957 C9.43610206 956.13955576 9.43651948 965.22771016 9.42799544 974.31590919 C9.42344536 979.50178884 9.42374495 984.68754804 9.43714955 989.87341501 C9.44923891 994.58603433 9.44765902 999.29843857 9.43491993 1004.01105437 C9.43276754 1005.71025492 9.43570496 1007.409471 9.44420573 1009.10865165 C9.45498766 1011.40863355 9.44737655 1013.70784554 9.43509549 1016.00780308 C9.43556343 1017.28341263 9.43603137 1018.55902217 9.43651349 1019.87328655 C8.85309625 1025.23805668 7.05655292 1028.36166678 3.1875 1032.0625 C-1.4410264 1035.39503901 -4.93910454 1036.56298046 -10.62838459 1036.55859566 C-11.77044339 1036.56257775 -12.9125022 1036.56655985 -14.08916885 1036.57066262 C-15.33916284 1036.56483693 -16.58915682 1036.55901125 -17.87702942 1036.55300903 C-19.22190564 1036.55388131 -20.56678153 1036.55563271 -21.9116556 1036.55818737 C-25.60591389 1036.56266052 -29.30005626 1036.55465766 -32.99429977 1036.54463124 C-36.97857082 1036.53599859 -40.96283527 1036.53891677 -44.94711304 1036.54043579 C-51.84969953 1036.54148476 -58.75224823 1036.53520691 -65.65482521 1036.52396011 C-75.63480159 1036.50770969 -85.61475969 1036.50249758 -95.59474786 1036.49998413 C-111.78640152 1036.49560631 -127.97803502 1036.48229484 -144.16967773 1036.46337891 C-159.89884338 1036.44502236 -175.62800355 1036.43086475 -191.35717773 1036.42236328 C-192.32663768 1036.42183783 -193.29609763 1036.42131239 -194.29493514 1036.42077102 C-199.1584051 1036.41816095 -204.02187509 1036.41563353 -208.8853451 1036.41314721 C-249.23607742 1036.392412 -289.58678756 1036.35718409 -329.9375 1036.3125 C-330.14313893 961.42357244 -330.33393751 886.53461086 -330.44561768 811.64547729 C-330.44727436 810.53739442 -330.44893105 809.42931154 -330.45063793 808.2876504 C-330.48655141 784.20700595 -330.51979379 760.1263585 -330.55028395 736.04570658 C-330.56525221 724.2368506 -330.58081083 712.42799543 -330.59667969 700.61914062 C-330.5982488 699.44400702 -330.5998179 698.26887341 -330.60143456 697.05812969 C-330.65258626 658.95698926 -330.74273337 620.85606216 -330.85306665 582.75505101 C-330.96622676 543.60682787 -331.04011806 504.45872282 -331.06447988 465.31033889 C-331.06793782 459.7830629 -331.07184547 454.2557873 -331.07602692 448.72851181 C-331.07683599 447.64064661 -331.07764507 446.55278141 -331.07847866 445.4319506 C-331.0926687 427.90825949 -331.1483503 410.38493312 -331.21948441 392.86139085 C-331.29008595 375.2514814 -331.31712738 357.64193415 -331.29951653 340.03188808 C-331.29037756 329.56441915 -331.31482434 319.09827415 -331.38707052 308.63104388 C-331.43202734 301.64103707 -331.43349597 294.65189841 -331.39948176 287.66183196 C-331.38133951 283.67689015 -331.38221999 279.69445339 -331.43609819 275.70977904 C-331.75282086 250.84844278 -331.75282086 250.84844278 -327.38481379 245.35424781 C-324.57705906 242.66125999 -321.42378716 241.0254239 -317.9375 239.3125 C-315.82132657 237.80779629 -313.83284552 236.1977262 -311.8125 234.5625 C-310.72137333 233.72743744 -309.62920791 232.89372672 -308.53515625 232.0625 C-304.41860312 228.9234407 -300.33429161 225.74335787 -296.25 222.5625 C-295.10797119 221.67353027 -295.10797119 221.67353027 -293.94287109 220.76660156 C-292.38451691 219.55349583 -290.82624925 218.34027893 -289.26806641 217.12695312 C-285.49232734 214.18736662 -281.71484465 211.25002285 -277.9375 208.3125 C-276.43749123 207.14584461 -274.93749124 205.97917793 -273.4375 204.8125 C-199.1875 147.0625 -124.9375 89.3125 -48.4375 29.8125 C-47.69411377 29.2342749 -46.95072754 28.6560498 -46.18481445 28.06030273 C-44.69390665 26.90077977 -43.20285984 25.74143552 -41.71166992 24.58227539 C-37.8213646 21.55780671 -33.93396089 18.52970739 -30.05078125 15.49609375 C-29.24705078 14.86896484 -28.44332031 14.24183594 -27.61523438 13.59570312 C-26.08828697 12.40415457 -24.56218316 11.2115238 -23.03710938 10.01757812 C-22.34037109 9.47423828 -21.64363281 8.93089844 -20.92578125 8.37109375 C-20.32290283 7.89986084 -19.72002441 7.42862793 -19.09887695 6.94311523 C-18.38562256 6.40501221 -17.67236816 5.86690918 -16.9375 5.3125 C-15.94288254 4.46031387 -14.94826508 3.60812775 -13.92350769 2.7301178 C-9.43037631 -0.47358764 -5.34861606 -0.26438026 0 0 Z " fill="#FFFFFF" transform="translate(2506.9375,1524.6875)"/>
<path d="M0 0 C0 221.43 0 442.86 0 671 C-112.2 671 -224.4 671 -340 671 C-340.48397619 561.73789412 -340.48397619 561.73789412 -340.5859375 516.1484375 C-340.60943221 505.71321386 -340.63367807 495.27799238 -340.65917969 484.84277344 C-340.66234467 483.53487634 -340.66550966 482.22697924 -340.66877055 480.87944889 C-340.72097223 459.76027942 -340.815583 438.64150176 -340.92583355 417.52256466 C-341.03802523 395.85116299 -341.10469962 374.17996653 -341.12906194 352.50828636 C-341.14553328 339.1338607 -341.19756638 325.76054195 -341.2949976 312.38645701 C-341.35839692 303.21711985 -341.37760891 294.04835547 -341.36201653 284.87881501 C-341.35432456 279.58682048 -341.36616681 274.29676078 -341.4304657 269.00510979 C-341.48893369 264.1579183 -341.49177922 259.31395893 -341.45078674 254.46661757 C-341.44572233 252.71537662 -341.46089997 250.96393278 -341.49859819 249.21309032 C-341.77687894 235.48824579 -341.77687894 235.48824579 -337.44731379 230.85051131 C-334.52999973 228.21157112 -331.31322643 226.11576189 -328 224 C-325.9263695 222.4541609 -323.90421907 220.85454237 -321.875 219.25 C-320.78387333 218.41493744 -319.69170791 217.58122672 -318.59765625 216.75 C-314.48110312 213.6109407 -310.39679161 210.43085787 -306.3125 207.25 C-305.17047119 206.36103027 -305.17047119 206.36103027 -304.00537109 205.45410156 C-302.44701691 204.24099583 -300.88874925 203.02777893 -299.33056641 201.81445312 C-295.55482734 198.87486662 -291.77734465 195.93752285 -288 193 C-286.49999123 191.83334461 -284.99999124 190.66667793 -283.5 189.5 C-76.5 28.5 -76.5 28.5 -74.24682617 26.74755859 C-72.75737049 25.58907508 -71.26794952 24.43054695 -69.77856445 23.27197266 C-65.86753006 20.22972365 -61.95577063 17.188413 -58.04296875 14.1484375 C-57.23021484 13.51679687 -56.41746094 12.88515625 -55.58007812 12.234375 C-54.02821828 11.0283582 -52.47614768 9.82261252 -50.92382812 8.6171875 C-50.22064453 8.070625 -49.51746094 7.5240625 -48.79296875 6.9609375 C-47.87294067 6.24623291 -47.87294067 6.24623291 -46.93432617 5.51708984 C-39.89990344 0 -39.89990344 0 0 0 Z " fill="#FFFFFF" transform="translate(2067,1890)"/>
<path d="M0 0 C1.5475507 0.74316427 3.07343108 1.53221409 4.58203125 2.3515625 C6.65180874 3.26625121 8.72506145 4.17309633 10.80078125 5.07421875 C12.58804886 5.89083232 14.37522867 6.70765171 16.16003418 7.52963257 C19.58188903 9.10423999 23.01172806 10.66127335 26.44140625 12.21875 C27.17498352 12.55208847 27.90856079 12.88542694 28.66436768 13.22886658 C37.51922643 17.24361191 46.42539156 21.14091311 55.33203125 25.0390625 C58.83993991 26.57530132 62.34772065 28.1118321 65.85546875 29.6484375 C66.73747955 30.03474335 67.61949036 30.42104919 68.52822876 30.81906128 C78.34707324 35.12147501 88.15264584 39.4538234 97.95703125 43.7890625 C99.75406887 44.58349641 101.55110663 45.37793001 103.34814453 46.17236328 C109.66247524 48.9640785 115.97637819 51.75676066 122.2902832 54.54943848 C128.59559851 57.33825141 134.90114015 60.12655173 141.20703125 62.9140625 C142.09694763 63.30745819 142.98686401 63.70085388 143.90374756 64.10617065 C157.79792767 70.24723517 171.70357542 76.36182926 185.61550903 82.46255493 C200.61216934 89.03939092 215.59367345 95.65012417 230.56640625 102.28125 C246.55043057 109.35427583 262.56786381 116.34536425 278.58203125 123.3515625 C278.58203125 260.9615625 278.58203125 398.5715625 278.58203125 540.3515625 C166.38203125 540.3515625 54.18203125 540.3515625 -61.41796875 540.3515625 C-62.62813558 414.90656504 -62.62813558 414.90656504 -62.87276539 364.59184751 C-62.93076984 352.67295585 -62.99037507 340.75407332 -63.05374856 328.83520891 C-63.06184387 327.3119932 -63.06989501 325.78877726 -63.07790141 324.26556109 C-63.20575591 300.01091045 -63.43074731 275.75836711 -63.70688537 251.50498867 C-63.99033435 226.56400028 -64.17463803 201.62417556 -64.23541845 176.68160381 C-64.24406223 173.15328518 -64.25383131 169.6249705 -64.26428604 166.0966568 C-64.26630873 165.40228057 -64.26833142 164.70790434 -64.27041541 163.9924864 C-64.30577751 152.84418281 -64.44465345 141.69949281 -64.62292977 130.5526593 C-64.80022907 119.32723712 -64.86443223 108.10529878 -64.82301007 96.87818506 C-64.80383793 90.79981699 -64.83255829 84.73198235 -64.994133 78.65550423 C-65.9186917 42.12089749 -65.9186917 42.12089749 -58.44751024 33.4700346 C-51.70411208 26.85221283 -43.44747961 22.66493558 -34.86582398 18.93174982 C-30.44031305 16.90349289 -26.72439734 14.3294037 -22.8984375 11.35546875 C-21.81056087 10.58105179 -20.71891297 9.81189738 -19.62304688 9.04882812 C-18.06894912 7.94939198 -16.51595989 6.84795888 -14.98461914 5.71704102 C-5.08450661 -1.55834261 -5.08450661 -1.55834261 0 0 Z " fill="#FFFFFF" transform="translate(1348.41796875,2020.6484375)"/>
<path d="M0 0 C0 141.24 0 282.48 0 428 C-81.4584375 428.12375 -81.4584375 428.12375 -164.5625 428.25 C-190.30938843 428.30462402 -190.30938843 428.30462402 -216.57641602 428.36035156 C-237.49206543 428.37841797 -237.49206543 428.37841797 -247.27500916 428.3817749 C-254.12642381 428.38551045 -260.97770853 428.40020585 -267.8290863 428.42230225 C-275.72810312 428.44773978 -283.62699497 428.45934938 -291.52605307 428.4537798 C-295.56795721 428.45136706 -299.60958196 428.45522811 -303.65143502 428.47686052 C-307.30639583 428.49630358 -310.96087929 428.49730872 -314.61586189 428.48360443 C-316.5633386 428.48110384 -318.51080973 428.49836287 -320.45820522 428.51632309 C-327.12953524 428.47067425 -331.74779908 428.31857588 -337 424 C-340.13611581 419.49266937 -340.44375205 415.27157086 -340.43478394 409.92935181 C-340.44510843 409.13357707 -340.45543293 408.33780234 -340.46607029 407.51791322 C-340.49668614 404.86034005 -340.50600455 402.20313757 -340.51513672 399.54541016 C-340.53230459 397.63633703 -340.55062391 395.72727396 -340.57000732 393.81822205 C-340.61784269 388.63847938 -340.64546969 383.45883088 -340.66642904 378.27891588 C-340.67967747 375.04151329 -340.69593336 371.80413817 -340.71295547 368.56675339 C-340.76469659 358.4337349 -340.8028407 348.3007846 -340.8233813 338.16765463 C-340.84742392 326.47669516 -340.91767038 314.78720255 -341.02738369 303.09674037 C-341.10931981 294.05451313 -341.14902228 285.01270449 -341.15698445 275.9701122 C-341.1627326 270.57132211 -341.18653707 265.17404707 -341.25472641 259.77565384 C-341.31778408 254.69747387 -341.32839227 249.62184341 -341.29906464 244.54338264 C-341.2973038 242.68253996 -341.3142886 240.82156834 -341.35163498 238.96109962 C-341.6174026 224.92350536 -341.6174026 224.92350536 -337.63191605 220.18374252 C-334.83623591 218.11746251 -332.10854799 216.54303548 -329 215 C-327.39709937 213.95862891 -325.80476804 212.90053074 -324.23046875 211.81640625 C-322.55117285 210.72915041 -320.87007531 209.64467388 -319.1875 208.5625 C-317.15701741 207.24691861 -315.12711272 205.93044503 -313.09765625 204.61328125 C-312.54785095 204.25672455 -311.99804565 203.90016785 -311.43157959 203.5328064 C-303.63896103 198.47481336 -295.88428276 193.35890973 -288.125 188.25 C-286.49089429 187.1743843 -284.8567796 186.09878225 -283.22265625 185.02319336 C-279.00089238 182.24416061 -274.77952392 179.46452784 -270.55828857 176.68469238 C-268.0182565 175.01202233 -265.47813739 173.33948452 -262.93798828 171.66699219 C-253.54627461 165.48323923 -244.1550708 159.29871251 -234.76422119 153.11364746 C-226.19622494 147.47054541 -217.62787017 141.82798786 -209.05947876 136.18548584 C-204.78963745 133.3736801 -200.51981993 130.56183822 -196.25 127.75 C-194.54166678 126.62499983 -192.83333345 125.49999983 -191.125 124.375 C-190.279375 123.818125 -189.43375 123.26125 -188.5625 122.6875 C-98.87499999 63.625 -98.87499999 63.625 -96.31282043 61.93771362 C-94.6034158 60.81200639 -92.89401435 59.68629431 -91.18461609 58.56057739 C-86.93019983 55.75885839 -82.67572922 52.95722198 -78.42114258 50.15576172 C-70.53845222 44.96523061 -62.65626087 39.77394719 -54.77597046 34.57977295 C-51.12380515 32.17257511 -47.47133652 29.76583772 -43.81884766 27.35913086 C-42.10694631 26.23094054 -40.39518736 25.10253409 -38.68359375 23.97387695 C-33.9490976 20.85190231 -29.21156163 17.7346372 -24.47015381 14.62316895 C-22.73104138 13.48037643 -20.99324547 12.33557919 -19.25640869 11.18933105 C-16.48231402 9.35893266 -13.70441181 7.53444062 -10.92578125 5.7109375 C-10.06268845 5.1396109 -9.19959564 4.5682843 -8.31034851 3.97964478 C-7.51353165 3.45832977 -6.71671478 2.93701477 -5.89575195 2.39990234 C-5.19045853 1.93562836 -4.4851651 1.47135437 -3.75849915 0.99301147 C-2 0 -2 0 0 0 Z " fill="#FFFFFF" transform="translate(1175,2133)"/>
</svg>
